{
    "asset" : {
        "generator" : "Khronos glTF Blender I/O v1.8.19",
        "version" : "2.0"
    },
    "scene" : 0,
    "scenes" : [
        {
            "name" : "Scene",
            "nodes" : [
                0
            ]
        }
    ],
    "nodes" : [
        {
            "mesh" : 0,
            "name" : "Asset3DLoader.sceneRoot",
            "translation" : [
                0,
                25.90616798400879,
                0
            ]
        }
    ],
    "materials" : [
        {
            "doubleSided" : true,
            "name" : "Material_0",
            "pbrMetallicRoughness" : {}
        }
    ],
    "meshes" : [
        {
            "name" : "Mesh_0",
            "primitives" : [
                {
                    "attributes" : {
                        "POSITION" : 0,
                        "NORMAL" : 1,
                        "TEXCOORD_0" : 2
                    },
                    "indices" : 3,
                    "material" : 0
                }
            ]
        }
    ],
    "accessors" : [
        {
            "bufferView" : 0,
            "componentType" : 5126,
            "count" : 1326,
            "max" : [
                15.275471687316895,
                5.503505229949951,
                15.668310165405273
            ],
            "min" : [
                -15.275471687316895,
                -24.496492385864258,
                -15.668310165405273
            ],
            "type" : "VEC3"
        },
        {
            "bufferView" : 1,
            "componentType" : 5126,
            "count" : 1326,
            "type" : "VEC3"
        },
        {
            "bufferView" : 2,
            "componentType" : 5126,
            "count" : 1326,
            "type" : "VEC2"
        },
        {
            "bufferView" : 3,
            "componentType" : 5123,
            "count" : 1326,
            "type" : "SCALAR"
        }
    ],
    "bufferViews" : [
        {
            "buffer" : 0,
            "byteLength" : 15912,
            "byteOffset" : 0
        },
        {
            "buffer" : 0,
            "byteLength" : 15912,
            "byteOffset" : 15912
        },
        {
            "buffer" : 0,
            "byteLength" : 10608,
            "byteOffset" : 31824
        },
        {
            "buffer" : 0,
            "byteLength" : 2652,
            "byteOffset" : 42432
        }
    ],
    "buffers" : [
        {
            "byteLength" : 45084,
            "uri" : "test.bin"
        }
    ]
}
